<svg viewBox="0 0 21 20" fill="none" xmlns="http://www.w3.org/2000/svg" class="hr-icon" width="1em" height="1em"><path d="M0.5 1.4196C0.5 0.635578 1.13558 0 1.91961 0H19.0804C19.8644 0 20.5 0.635579 20.5 1.41961V18.5803C20.5 19.3644 19.8644 19.9999 19.0804 19.9999H1.91961C1.13558 19.9999 0.5 19.3644 0.5 18.5803V1.4196Z" fill="#0A66C2"></path><path d="M4.98939 6.2112C5.9476 6.2112 6.72439 5.43442 6.72439 4.47621C6.72439 3.51799 5.9476 2.74121 4.98939 2.74121C4.03118 2.74121 3.25439 3.51799 3.25439 4.47621C3.25439 5.43442 4.03118 6.2112 4.98939 6.2112Z" fill="white"></path><path d="M8.31335 7.49341H11.1888V8.81067C11.1888 8.81067 11.9691 7.25008 14.0921 7.25008C15.986 7.25008 17.5549 8.18305 17.5549 11.0268V17.0234H14.5751V11.7534C14.5751 10.0759 13.6795 9.89138 12.997 9.89138C11.5807 9.89138 11.3382 11.113 11.3382 11.9722V17.0234H8.31335V7.49341Z" fill="white"></path><path d="M3.47695 7.49342H6.50183V17.0234H3.47695V7.49342Z" fill="white"></path></svg>